<svg width="293" height="186" viewBox="0 0 293 186" fill="none" xmlns="http://www.w3.org/2000/svg">
<g filter="url(#filter0_dd_2641_18769)">
<rect x="30" y="21" width="233" height="143" rx="7" fill="white"/>
</g>
<rect x="164" y="31" width="17" height="2" rx="1" fill="#EFF1F5"/>
<rect x="234" y="31" width="17" height="2" rx="1" fill="#EFF1F5"/>
<rect x="138" y="31" width="17" height="2" rx="1" fill="#EFF1F5"/>
<rect x="112" y="31" width="17" height="2" rx="1" fill="#D3D5DE"/>
<line x1="91" y1="42.5" x2="263" y2="42.5" stroke="#EBEEF2"/>
<line x1="90.5" y1="164" x2="90.5" y2="21" stroke="#EBEEF2"/>
<line x1="209.5" y1="164" x2="209.5" y2="43" stroke="#EBEEF2"/>
<rect x="38" y="52" width="35" height="4" rx="2" fill="#D3D5DE"/>
<rect x="38" y="72" width="35" height="4" rx="2" fill="#D3D5DE"/>
<rect x="38" y="98" width="35" height="4" rx="2" fill="#D3D5DE"/>
<rect x="38" y="62" width="21" height="2" rx="1" fill="#EFF1F5"/>
<rect x="38" y="82" width="21" height="2" rx="1" fill="#EFF1F5"/>
<rect x="38" y="108" width="21" height="2" rx="1" fill="#EFF1F5"/>
<rect x="38" y="88" width="21" height="2" rx="1" fill="#EFF1F5"/>
<rect x="38" y="114" width="20" height="2" rx="1" fill="#EFF1F5"/>
<circle cx="44" cy="34" r="6" fill="#EFF1F5"/>
<defs>
<filter id="filter0_dd_2641_18769" x="12" y="7" width="269" height="179" filterUnits="userSpaceOnUse" color-interpolation-filters="sRGB">
<feFlood flood-opacity="0" result="BackgroundImageFix"/>
<feColorMatrix in="SourceAlpha" type="matrix" values="0 0 0 0 0 0 0 0 0 0 0 0 0 0 0 0 0 0 127 0" result="hardAlpha"/>
<feMorphology radius="2" operator="erode" in="SourceAlpha" result="effect1_dropShadow_2641_18769"/>
<feOffset dy="4"/>
<feGaussianBlur stdDeviation="10"/>
<feColorMatrix type="matrix" values="0 0 0 0 0.196078 0 0 0 0 0.196078 0 0 0 0 0.278431 0 0 0 0.08 0"/>
<feBlend mode="normal" in2="BackgroundImageFix" result="effect1_dropShadow_2641_18769"/>
<feColorMatrix in="SourceAlpha" type="matrix" values="0 0 0 0 0 0 0 0 0 0 0 0 0 0 0 0 0 0 127 0" result="hardAlpha"/>
<feOffset/>
<feGaussianBlur stdDeviation="0.5"/>
<feColorMatrix type="matrix" values="0 0 0 0 0.0470588 0 0 0 0 0.101961 0 0 0 0 0.294118 0 0 0 0.1 0"/>
<feBlend mode="normal" in2="effect1_dropShadow_2641_18769" result="effect2_dropShadow_2641_18769"/>
<feBlend mode="normal" in="SourceGraphic" in2="effect2_dropShadow_2641_18769" result="shape"/>
</filter>
</defs>
</svg>
